<?xml version="1.0" encoding="UTF-8" standalone="no"?>
<svg
   width="1024.0001pt"
   height="768pt"
   viewBox="0 0 1024.0001 767.99999"
   version="1.2"
   id="svg6296"
   xmlns="http://www.w3.org/2000/svg"
   xmlns:svg="http://www.w3.org/2000/svg">
  <defs
     id="defs5407">
    <clipPath
       id="clip1">
      <path
         d="m 623,667 h 10 v 14.41016 h -10 z m 0,0"
         id="path5389" />
    </clipPath>
    <clipPath
       id="clip2">
      <path
         d="m 634,667 h 10 v 14.41016 h -10 z m 0,0"
         id="path5392" />
    </clipPath>
    <clipPath
       id="clip3">
      <path
         d="m 649,667 h 10 v 14.41016 h -10 z m 0,0"
         id="path5395" />
    </clipPath>
    <clipPath
       id="clip4">
      <path
         d="m 660,667 h 11 v 14.41016 h -11 z m 0,0"
         id="path5398" />
    </clipPath>
    <clipPath
       id="clip5">
      <path
         d="m 676,667 h 10 v 14.41016 h -10 z m 0,0"
         id="path5401" />
    </clipPath>
    <clipPath
       id="clip6">
      <path
         d="m 686,667 h 10 v 14.41016 h -10 z m 0,0"
         id="path5404" />
    </clipPath>
  </defs>
  <g
     id="surface150791"
     transform="translate(-54.355664,-184.80021)">
    <path
       style="fill:none;stroke:#e6e6e8;stroke-width:5;stroke-linecap:butt;stroke-linejoin:miter;stroke-miterlimit:10;stroke-opacity:1"
       d="M 3.4402e-4,-8.00045e-4 H -148.94311"
       transform="matrix(2.343617,0,0,-2.343617,656.6281,234.6075)"
       id="path5411" />
    <path
       style="fill:none;stroke:#e6e6e8;stroke-width:5;stroke-linecap:butt;stroke-linejoin:miter;stroke-miterlimit:10;stroke-opacity:1"
       d="M -1.94678e-4,-8.05379e-4 V 152.8312"
       transform="matrix(2.343617,0,0,-2.343617,311.7778,591.6153)"
       id="path5413" />
    <path
       style="fill:none;stroke:#e6e6e8;stroke-width:5;stroke-linecap:butt;stroke-linejoin:miter;stroke-miterlimit:10;stroke-opacity:1"
       d="M 2.32013e-4,-1.33341e-5 H -148.94322"
       transform="matrix(2.343617,0,0,-2.343617,660.8393,475.707)"
       id="path5415" />
    <path
       style="fill:none;stroke:#e6e6e8;stroke-width:5;stroke-linecap:butt;stroke-linejoin:miter;stroke-miterlimit:10;stroke-opacity:1"
       d="M 2.32013e-4,-8.05379e-4 V 152.8312"
       transform="matrix(2.343617,0,0,-2.343617,660.8393,591.6153)"
       id="path5417" />
    <path
       style="fill:#a6a6a6;fill-opacity:1;fill-rule:nonzero;stroke:#3f3f3f;stroke-width:1;stroke-linecap:butt;stroke-linejoin:miter;stroke-miterlimit:10;stroke-opacity:1"
       d="m 56.119406,185.4287 h 11.437316 v 11.43731 H 56.119406 Z m 0,0"
       transform="matrix(2.343617,0,0,-2.343617,166.8487,681.40979)"
       id="path5435" />
    <path
       style="fill:#e6e6e6;fill-opacity:1;fill-rule:nonzero;stroke:#3f3f3f;stroke-width:1;stroke-linecap:butt;stroke-linejoin:miter;stroke-miterlimit:10;stroke-opacity:1"
       d="m 56.119406,174.65642 h 11.437316 v 11.43732 H 56.119406 Z m 0,0"
       transform="matrix(2.343617,0,0,-2.343617,166.8487,681.40979)"
       id="path5437" />
    <path
       style="fill:#7a68a8;fill-opacity:1;fill-rule:nonzero;stroke:#3f3f3f;stroke-width:1;stroke-linecap:butt;stroke-linejoin:miter;stroke-miterlimit:10;stroke-opacity:1"
       d="m 44.73876,135.82755 h 11.438983 v 11.43898 H 44.73876 Z m 0,0"
       transform="matrix(2.343617,0,0,-2.343617,166.8487,681.40979)"
       id="path5439" />
    <path
       style="fill:#bfbdbd;fill-opacity:1;fill-rule:nonzero;stroke:#3f3f3f;stroke-width:1;stroke-linecap:butt;stroke-linejoin:miter;stroke-miterlimit:10;stroke-opacity:1"
       d="m 56.119406,135.82755 h 11.437316 v 11.43898 H 56.119406 Z m 0,0"
       transform="matrix(2.343617,0,0,-2.343617,166.8487,681.40979)"
       id="path5441" />
    <path
       style="fill:#f0592e;fill-opacity:1;fill-rule:nonzero;stroke:#3f3f3f;stroke-width:1;stroke-linecap:butt;stroke-linejoin:miter;stroke-miterlimit:10;stroke-opacity:1"
       d="m 67.498385,135.82755 h 11.437316 v 11.43898 H 67.498385 Z m 0,0"
       transform="matrix(2.343617,0,0,-2.343617,166.8487,681.40979)"
       id="path5443" />
    <path
       style="fill:#c2b3d7;fill-opacity:1;fill-rule:nonzero;stroke:#3f3f3f;stroke-width:1;stroke-linecap:butt;stroke-linejoin:miter;stroke-miterlimit:10;stroke-opacity:1"
       d="m 44.73876,124.05688 h 11.438983 v 11.43565 H 44.73876 Z m 0,0"
       transform="matrix(2.343617,0,0,-2.343617,166.8487,681.40979)"
       id="path5445" />
    <path
       style="fill:#e6e6e6;fill-opacity:1;fill-rule:nonzero;stroke:#3f3f3f;stroke-width:1;stroke-linecap:butt;stroke-linejoin:miter;stroke-miterlimit:10;stroke-opacity:1"
       d="m 56.119406,124.05688 h 11.437316 v 11.43565 H 56.119406 Z m 0,0"
       transform="matrix(2.343617,0,0,-2.343617,166.8487,681.40979)"
       id="path5447" />
    <path
       style="fill:#fdcc85;fill-opacity:1;fill-rule:nonzero;stroke:#3f3f3f;stroke-width:1;stroke-linecap:butt;stroke-linejoin:miter;stroke-miterlimit:10;stroke-opacity:1"
       d="m 67.498385,124.05688 h 11.437316 v 11.43565 H 67.498385 Z m 0,0"
       transform="matrix(2.343617,0,0,-2.343617,166.8487,681.40979)"
       id="path5449" />
    <path
       style="fill:#7a68a8;fill-opacity:1;fill-rule:nonzero;stroke:#3f3f3f;stroke-width:1;stroke-linecap:butt;stroke-linejoin:miter;stroke-miterlimit:10;stroke-opacity:1"
       d="M 44.73876,82.051167 H 56.177743 V 93.491816 H 44.73876 Z m 0,0"
       transform="matrix(2.343617,0,0,-2.343617,166.8487,681.40979)"
       id="path5451" />
    <path
       style="fill:#bfbdbd;fill-opacity:1;fill-rule:nonzero;stroke:#3f3f3f;stroke-width:1;stroke-linecap:butt;stroke-linejoin:miter;stroke-miterlimit:10;stroke-opacity:1"
       d="M 56.119406,82.051167 H 67.556722 V 93.491816 H 56.119406 Z m 0,0"
       transform="matrix(2.343617,0,0,-2.343617,166.8487,681.40979)"
       id="path5453" />
    <path
       style="fill:#f0592e;fill-opacity:1;fill-rule:nonzero;stroke:#3f3f3f;stroke-width:1;stroke-linecap:butt;stroke-linejoin:miter;stroke-miterlimit:10;stroke-opacity:1"
       d="M 67.498385,82.051167 H 78.935701 V 93.491816 H 67.498385 Z m 0,0"
       transform="matrix(2.343617,0,0,-2.343617,166.8487,681.40979)"
       id="path5455" />
    <path
       style="fill:#eb177d;fill-opacity:1;fill-rule:nonzero;stroke:#3f3f3f;stroke-width:1;stroke-linecap:butt;stroke-linejoin:miter;stroke-miterlimit:10;stroke-opacity:1"
       d="M 44.73876,32.430017 H 56.177743 V 43.867333 H 44.73876 Z m 0,0"
       transform="matrix(2.343617,0,0,-2.343617,166.8487,681.40979)"
       id="path5457" />
    <path
       style="fill:#ca9cc7;fill-opacity:1;fill-rule:nonzero;stroke:#3f3f3f;stroke-width:1;stroke-linecap:butt;stroke-linejoin:miter;stroke-miterlimit:10;stroke-opacity:1"
       d="M 56.119406,32.430017 H 67.556722 V 43.867333 H 56.119406 Z m 0,0"
       transform="matrix(2.343617,0,0,-2.343617,166.8487,681.40979)"
       id="path5459" />
    <path
       style="fill:#594fa1;fill-opacity:1;fill-rule:nonzero;stroke:#3f3f3f;stroke-width:1;stroke-linecap:butt;stroke-linejoin:miter;stroke-miterlimit:10;stroke-opacity:1"
       d="M 67.498385,32.430017 H 78.935701 V 43.867333 H 67.498385 Z m 0,0"
       transform="matrix(2.343617,0,0,-2.343617,166.8487,681.40979)"
       id="path5461" />
    <path
       style="fill:#f599a6;fill-opacity:1;fill-rule:nonzero;stroke:#3f3f3f;stroke-width:1;stroke-linecap:butt;stroke-linejoin:miter;stroke-miterlimit:10;stroke-opacity:1"
       d="M 44.740427,21.324387 H 56.177743 V 32.761703 H 44.740427 Z m 0,0"
       transform="matrix(2.343617,0,0,-2.343617,166.8487,681.40979)"
       id="path5463" />
    <path
       style="fill:#e6e6e6;fill-opacity:1;fill-rule:nonzero;stroke:#3f3f3f;stroke-width:1;stroke-linecap:butt;stroke-linejoin:miter;stroke-miterlimit:10;stroke-opacity:1"
       d="M 56.119406,21.324387 H 67.558388 V 32.761703 H 56.119406 Z m 0,0"
       transform="matrix(2.343617,0,0,-2.343617,166.8487,681.40979)"
       id="path5465" />
    <path
       style="fill:#9cc7d4;fill-opacity:1;fill-rule:nonzero;stroke:#3f3f3f;stroke-width:1;stroke-linecap:butt;stroke-linejoin:miter;stroke-miterlimit:10;stroke-opacity:1"
       d="M 67.500052,21.324387 H 78.937367 V 32.761703 H 67.500052 Z m 0,0"
       transform="matrix(2.343617,0,0,-2.343617,166.8487,681.40979)"
       id="path5467" />
    <path
       style="fill:#f07321;fill-opacity:1;fill-rule:nonzero;stroke:#3f3f3f;stroke-width:1;stroke-linecap:butt;stroke-linejoin:miter;stroke-miterlimit:10;stroke-opacity:1"
       d="M 44.740427,9.887071 H 56.177743 V 21.324387 H 44.740427 Z m 0,0"
       transform="matrix(2.343617,0,0,-2.343617,166.8487,681.40979)"
       id="path5469" />
    <path
       style="fill:#cce18f;fill-opacity:1;fill-rule:nonzero;stroke:#3f3f3f;stroke-width:1;stroke-linecap:butt;stroke-linejoin:miter;stroke-miterlimit:10;stroke-opacity:1"
       d="M 56.119406,9.887071 H 67.558388 V 21.324387 H 56.119406 Z m 0,0"
       transform="matrix(2.343617,0,0,-2.343617,166.8487,681.40979)"
       id="path5471" />
    <path
       style="fill:#118742;fill-opacity:1;fill-rule:nonzero;stroke:#3f3f3f;stroke-width:1;stroke-linecap:butt;stroke-linejoin:miter;stroke-miterlimit:10;stroke-opacity:1"
       d="M 67.500052,9.887071 H 78.937367 V 21.324387 H 67.500052 Z m 0,0"
       transform="matrix(2.343617,0,0,-2.343617,166.8487,681.40979)"
       id="path5473" />
    <path
       style="fill:#7fb597;fill-opacity:1;fill-rule:nonzero;stroke:#3f3f3f;stroke-width:1;stroke-linecap:butt;stroke-linejoin:miter;stroke-miterlimit:10;stroke-opacity:1"
       d="m 123.07321,185.4287 h 11.43898 v 11.43731 h -11.43898 z m 0,0"
       transform="matrix(2.343617,0,0,-2.343617,166.8487,681.40979)"
       id="path5475" />
    <path
       style="fill:#829ebd;fill-opacity:1;fill-rule:nonzero;stroke:#3f3f3f;stroke-width:1;stroke-linecap:butt;stroke-linejoin:miter;stroke-miterlimit:10;stroke-opacity:1"
       d="m 134.45218,185.4287 h 11.43899 v 11.43731 h -11.43899 z m 0,0"
       transform="matrix(2.343617,0,0,-2.343617,166.8487,681.40979)"
       id="path5477" />
    <path
       style="fill:#dc68a3;fill-opacity:1;fill-rule:nonzero;stroke:#3f3f3f;stroke-width:1;stroke-linecap:butt;stroke-linejoin:miter;stroke-miterlimit:10;stroke-opacity:1"
       d="m 145.83283,185.4287 h 11.43732 v 11.43731 h -11.43732 z m 0,0"
       transform="matrix(2.343617,0,0,-2.343617,166.8487,681.40979)"
       id="path5479" />
    <path
       style="fill:#cce6d7;fill-opacity:1;fill-rule:nonzero;stroke:#3f3f3f;stroke-width:1;stroke-linecap:butt;stroke-linejoin:miter;stroke-miterlimit:10;stroke-opacity:1"
       d="m 123.07321,174.3214 h 11.43898 v 11.43899 h -11.43898 z m 0,0"
       transform="matrix(2.343617,0,0,-2.343617,166.8487,681.40979)"
       id="path5481" />
    <path
       style="fill:#c2d9e8;fill-opacity:1;fill-rule:nonzero;stroke:#3f3f3f;stroke-width:1;stroke-linecap:butt;stroke-linejoin:miter;stroke-miterlimit:10;stroke-opacity:1"
       d="m 134.45385,174.3214 h 11.43898 v 11.43899 h -11.43898 z m 0,0"
       transform="matrix(2.343617,0,0,-2.343617,166.8487,681.40979)"
       id="path5483" />
    <path
       style="fill:#f5b3d1;fill-opacity:1;fill-rule:nonzero;stroke:#3f3f3f;stroke-width:1;stroke-linecap:butt;stroke-linejoin:miter;stroke-miterlimit:10;stroke-opacity:1"
       d="m 145.83283,174.3214 h 11.43898 v 11.43899 h -11.43898 z m 0,0"
       transform="matrix(2.343617,0,0,-2.343617,166.8487,681.40979)"
       id="path5485" />
    <path
       style="fill:#7fb597;fill-opacity:1;fill-rule:nonzero;stroke:#3f3f3f;stroke-width:1;stroke-linecap:butt;stroke-linejoin:miter;stroke-miterlimit:10;stroke-opacity:1"
       d="m 193.68221,185.4287 h 11.43898 v 11.43731 h -11.43898 z m 0,0"
       transform="matrix(2.343617,0,0,-2.343617,166.8487,681.40979)"
       id="path5487" />
    <path
       style="fill:#829ebd;fill-opacity:1;fill-rule:nonzero;stroke:#3f3f3f;stroke-width:1;stroke-linecap:butt;stroke-linejoin:miter;stroke-miterlimit:10;stroke-opacity:1"
       d="m 205.06119,185.4287 h 11.43898 v 11.43731 h -11.43898 z m 0,0"
       transform="matrix(2.343617,0,0,-2.343617,166.8487,681.40979)"
       id="path5489" />
    <path
       style="fill:#dc68a3;fill-opacity:1;fill-rule:nonzero;stroke:#3f3f3f;stroke-width:1;stroke-linecap:butt;stroke-linejoin:miter;stroke-miterlimit:10;stroke-opacity:1"
       d="m 216.44017,185.4287 h 11.43898 v 11.43731 h -11.43898 z m 0,0"
       transform="matrix(2.343617,0,0,-2.343617,166.8487,681.40979)"
       id="path5491" />
    <path
       style="fill:#118742;fill-opacity:1;fill-rule:nonzero;stroke:#3f3f3f;stroke-width:1;stroke-linecap:butt;stroke-linejoin:miter;stroke-miterlimit:10;stroke-opacity:1"
       d="m 193.68221,147.10152 h 11.43898 v 11.43899 h -11.43898 z m 0,0"
       transform="matrix(2.343617,0,0,-2.343617,166.8487,681.40979)"
       id="path5493" />
    <path
       style="fill:#0c519e;fill-opacity:1;fill-rule:nonzero;stroke:#3f3f3f;stroke-width:1;stroke-linecap:butt;stroke-linejoin:miter;stroke-miterlimit:10;stroke-opacity:1"
       d="m 205.06119,147.10152 h 11.43898 v 11.43899 h -11.43898 z m 0,0"
       transform="matrix(2.343617,0,0,-2.343617,166.8487,681.40979)"
       id="path5495" />
    <path
       style="fill:#d41766;fill-opacity:1;fill-rule:nonzero;stroke:#3f3f3f;stroke-width:1;stroke-linecap:butt;stroke-linejoin:miter;stroke-miterlimit:10;stroke-opacity:1"
       d="m 216.44017,147.10152 h 11.43898 v 11.43899 h -11.43898 z m 0,0"
       transform="matrix(2.343617,0,0,-2.343617,166.8487,681.40979)"
       id="path5497" />
    <path
       style="fill:#7fc29c;fill-opacity:1;fill-rule:nonzero;stroke:#3f3f3f;stroke-width:1;stroke-linecap:butt;stroke-linejoin:miter;stroke-miterlimit:10;stroke-opacity:1"
       d="m 193.68221,135.99423 h 11.43898 v 11.43898 h -11.43898 z m 0,0"
       transform="matrix(2.343617,0,0,-2.343617,166.8487,681.40979)"
       id="path5499" />
    <path
       style="fill:#85a8cf;fill-opacity:1;fill-rule:nonzero;stroke:#3f3f3f;stroke-width:1;stroke-linecap:butt;stroke-linejoin:miter;stroke-miterlimit:10;stroke-opacity:1"
       d="m 205.06286,135.99423 h 11.43898 v 11.43898 h -11.43898 z m 0,0"
       transform="matrix(2.343617,0,0,-2.343617,166.8487,681.40979)"
       id="path5501" />
    <path
       style="fill:#eb6ba8;fill-opacity:1;fill-rule:nonzero;stroke:#3f3f3f;stroke-width:1;stroke-linecap:butt;stroke-linejoin:miter;stroke-miterlimit:10;stroke-opacity:1"
       d="m 216.4435,135.99423 h 11.43732 v 11.43898 H 216.4435 Z m 0,0"
       transform="matrix(2.343617,0,0,-2.343617,166.8487,681.40979)"
       id="path5503" />
    <path
       style="fill:#cce6d7;fill-opacity:1;fill-rule:nonzero;stroke:#3f3f3f;stroke-width:1;stroke-linecap:butt;stroke-linejoin:miter;stroke-miterlimit:10;stroke-opacity:1"
       d="m 193.68221,124.55691 h 11.43898 v 11.43732 h -11.43898 z m 0,0"
       transform="matrix(2.343617,0,0,-2.343617,166.8487,681.40979)"
       id="path5505" />
    <path
       style="fill:#cfdeeb;fill-opacity:1;fill-rule:nonzero;stroke:#3f3f3f;stroke-width:1;stroke-linecap:butt;stroke-linejoin:miter;stroke-miterlimit:10;stroke-opacity:1"
       d="m 205.06286,124.55691 h 11.43898 v 11.43732 h -11.43898 z m 0,0"
       transform="matrix(2.343617,0,0,-2.343617,166.8487,681.40979)"
       id="path5507" />
    <path
       style="fill:#f5b3d1;fill-opacity:1;fill-rule:nonzero;stroke:#3f3f3f;stroke-width:1;stroke-linecap:butt;stroke-linejoin:miter;stroke-miterlimit:10;stroke-opacity:1"
       d="m 216.4435,124.55691 h 11.43732 v 11.43732 H 216.4435 Z m 0,0"
       transform="matrix(2.343617,0,0,-2.343617,166.8487,681.40979)"
       id="path5509" />
    <path
       style="fill:#7f7f7f;fill-opacity:1;fill-rule:nonzero;stroke:#3f3f3f;stroke-width:1;stroke-linecap:butt;stroke-linejoin:miter;stroke-miterlimit:10;stroke-opacity:1"
       d="m 205.05952,93.323473 h 11.43899 v 11.438987 h -11.43899 z m 0,0"
       transform="matrix(2.343617,0,0,-2.343617,166.8487,681.40979)"
       id="path5511" />
    <path
       style="fill:#b3b3b3;fill-opacity:1;fill-rule:nonzero;stroke:#3f3f3f;stroke-width:1;stroke-linecap:butt;stroke-linejoin:miter;stroke-miterlimit:10;stroke-opacity:1"
       d="m 205.05952,82.216176 h 11.43899 v 11.440649 h -11.43899 z m 0,0"
       transform="matrix(2.343617,0,0,-2.343617,166.8487,681.40979)"
       id="path5513" />
    <path
       style="fill:#e6e6e6;fill-opacity:1;fill-rule:nonzero;stroke:#3f3f3f;stroke-width:1;stroke-linecap:butt;stroke-linejoin:miter;stroke-miterlimit:10;stroke-opacity:1"
       d="m 205.05952,70.77886 h 11.43899 v 11.437316 h -11.43899 z m 0,0"
       transform="matrix(2.343617,0,0,-2.343617,166.8487,681.40979)"
       id="path5515" />
    <path
       style="fill:#231e59;fill-opacity:1;fill-rule:nonzero;stroke:#3f3f3f;stroke-width:1;stroke-linecap:butt;stroke-linejoin:miter;stroke-miterlimit:10;stroke-opacity:1"
       d="m 123.07321,93.323473 h 11.43898 v 11.438987 h -11.43898 z m 0,0"
       transform="matrix(2.343617,0,0,-2.343617,166.8487,681.40979)"
       id="path5517" />
    <path
       style="fill:#7f7f7f;fill-opacity:1;fill-rule:nonzero;stroke:#3f3f3f;stroke-width:1;stroke-linecap:butt;stroke-linejoin:miter;stroke-miterlimit:10;stroke-opacity:1"
       d="m 134.45218,93.323473 h 11.43899 v 11.438987 h -11.43899 z m 0,0"
       transform="matrix(2.343617,0,0,-2.343617,166.8487,681.40979)"
       id="path5519" />
    <path
       style="fill:#b01e21;fill-opacity:1;fill-rule:nonzero;stroke:#3f3f3f;stroke-width:1;stroke-linecap:butt;stroke-linejoin:miter;stroke-miterlimit:10;stroke-opacity:1"
       d="m 145.83283,93.323473 h 11.43732 v 11.438987 h -11.43732 z m 0,0"
       transform="matrix(2.343617,0,0,-2.343617,166.8487,681.40979)"
       id="path5521" />
    <path
       style="fill:#7a68a8;fill-opacity:1;fill-rule:nonzero;stroke:#3f3f3f;stroke-width:1;stroke-linecap:butt;stroke-linejoin:miter;stroke-miterlimit:10;stroke-opacity:1"
       d="m 123.07321,82.219509 h 11.43898 v 11.437316 h -11.43898 z m 0,0"
       transform="matrix(2.343617,0,0,-2.343617,166.8487,681.40979)"
       id="path5523" />
    <path
       style="fill:#bfbdbd;fill-opacity:1;fill-rule:nonzero;stroke:#3f3f3f;stroke-width:1;stroke-linecap:butt;stroke-linejoin:miter;stroke-miterlimit:10;stroke-opacity:1"
       d="m 134.45385,82.219509 h 11.43898 v 11.437316 h -11.43898 z m 0,0"
       transform="matrix(2.343617,0,0,-2.343617,166.8487,681.40979)"
       id="path5525" />
    <path
       style="fill:#f0592e;fill-opacity:1;fill-rule:nonzero;stroke:#3f3f3f;stroke-width:1;stroke-linecap:butt;stroke-linejoin:miter;stroke-miterlimit:10;stroke-opacity:1"
       d="m 145.83283,82.219509 h 11.43898 v 11.437316 h -11.43898 z m 0,0"
       transform="matrix(2.343617,0,0,-2.343617,166.8487,681.40979)"
       id="path5527" />
    <path
       style="fill:#c2b3d7;fill-opacity:1;fill-rule:nonzero;stroke:#3f3f3f;stroke-width:1;stroke-linecap:butt;stroke-linejoin:miter;stroke-miterlimit:10;stroke-opacity:1"
       d="m 123.07321,70.780527 h 11.43898 v 11.438982 h -11.43898 z m 0,0"
       transform="matrix(2.343617,0,0,-2.343617,166.8487,681.40979)"
       id="path5529" />
    <path
       style="fill:#e6e6e6;fill-opacity:1;fill-rule:nonzero;stroke:#3f3f3f;stroke-width:1;stroke-linecap:butt;stroke-linejoin:miter;stroke-miterlimit:10;stroke-opacity:1"
       d="m 134.45385,70.780527 h 11.43898 v 11.438982 h -11.43898 z m 0,0"
       transform="matrix(2.343617,0,0,-2.343617,166.8487,681.40979)"
       id="path5531" />
    <path
       style="fill:#fdcc85;fill-opacity:1;fill-rule:nonzero;stroke:#3f3f3f;stroke-width:1;stroke-linecap:butt;stroke-linejoin:miter;stroke-miterlimit:10;stroke-opacity:1"
       d="m 145.83283,70.780527 h 11.43898 v 11.438982 h -11.43898 z m 0,0"
       transform="matrix(2.343617,0,0,-2.343617,166.8487,681.40979)"
       id="path5533" />
    <path
       style="fill:#f0b023;fill-opacity:1;fill-rule:nonzero;stroke:#3f3f3f;stroke-width:1;stroke-linecap:butt;stroke-linejoin:miter;stroke-miterlimit:10;stroke-opacity:1"
       d="m 193.68221,32.596693 h 11.43898 v 11.437316 h -11.43898 z m 0,0"
       transform="matrix(2.343617,0,0,-2.343617,166.8487,681.40979)"
       id="path5535" />
    <path
       style="fill:#b06626;fill-opacity:1;fill-rule:nonzero;stroke:#3f3f3f;stroke-width:1;stroke-linecap:butt;stroke-linejoin:miter;stroke-miterlimit:10;stroke-opacity:1"
       d="m 205.06119,32.596693 h 11.43898 v 11.437316 h -11.43898 z m 0,0"
       transform="matrix(2.343617,0,0,-2.343617,166.8487,681.40979)"
       id="path5537" />
    <path
       style="fill:#000000;fill-opacity:1;fill-rule:nonzero;stroke:#3f3f3f;stroke-width:1;stroke-linecap:butt;stroke-linejoin:miter;stroke-miterlimit:10;stroke-opacity:1"
       d="m 216.44017,32.596693 h 11.43898 v 11.437316 h -11.43898 z m 0,0"
       transform="matrix(2.343617,0,0,-2.343617,166.8487,681.40979)"
       id="path5539" />
    <path
       style="fill:#f3e6b5;fill-opacity:1;fill-rule:nonzero;stroke:#3f3f3f;stroke-width:1;stroke-linecap:butt;stroke-linejoin:miter;stroke-miterlimit:10;stroke-opacity:1"
       d="m 193.68221,21.489397 h 11.43898 v 11.438982 h -11.43898 z m 0,0"
       transform="matrix(2.343617,0,0,-2.343617,166.8487,681.40979)"
       id="path5541" />
    <path
       style="fill:#b3b3b3;fill-opacity:1;fill-rule:nonzero;stroke:#3f3f3f;stroke-width:1;stroke-linecap:butt;stroke-linejoin:miter;stroke-miterlimit:10;stroke-opacity:1"
       d="m 205.06286,21.489397 h 11.43898 v 11.438982 h -11.43898 z m 0,0"
       transform="matrix(2.343617,0,0,-2.343617,166.8487,681.40979)"
       id="path5543" />
    <path
       style="fill:#386385;fill-opacity:1;fill-rule:nonzero;stroke:#3f3f3f;stroke-width:1;stroke-linecap:butt;stroke-linejoin:miter;stroke-miterlimit:10;stroke-opacity:1"
       d="m 216.4435,21.489397 h 11.43732 V 32.928379 H 216.4435 Z m 0,0"
       transform="matrix(2.343617,0,0,-2.343617,166.8487,681.40979)"
       id="path5545" />
    <path
       style="fill:#f3f3f3;fill-opacity:1;fill-rule:nonzero;stroke:#3f3f3f;stroke-width:1;stroke-linecap:butt;stroke-linejoin:miter;stroke-miterlimit:10;stroke-opacity:1"
       d="m 193.68221,10.053748 h 11.43898 v 11.437315 h -11.43898 z m 0,0"
       transform="matrix(2.343617,0,0,-2.343617,166.8487,681.40979)"
       id="path5547" />
    <path
       style="fill:#b3d1e1;fill-opacity:1;fill-rule:nonzero;stroke:#3f3f3f;stroke-width:1;stroke-linecap:butt;stroke-linejoin:miter;stroke-miterlimit:10;stroke-opacity:1"
       d="m 205.06286,10.053748 h 11.43898 v 11.437315 h -11.43898 z m 0,0"
       transform="matrix(2.343617,0,0,-2.343617,166.8487,681.40979)"
       id="path5549" />
    <path
       style="fill:#519cbf;fill-opacity:1;fill-rule:nonzero;stroke:#3f3f3f;stroke-width:1;stroke-linecap:butt;stroke-linejoin:miter;stroke-miterlimit:10;stroke-opacity:1"
       d="m 216.4435,10.053748 h 11.43732 V 21.491063 H 216.4435 Z m 0,0"
       transform="matrix(2.343617,0,0,-2.343617,166.8487,681.40979)"
       id="path5551" />
    <path
       style="fill:#3f3f3f;fill-opacity:1;fill-rule:nonzero;stroke:none"
       d="m 469.82812,283.875 h -3.90625 v -2.09375 h 10.35938 v 2.09375 h -3.94922 v 11.62109 h -2.50391 z m 0,0"
       id="path5553" />
    <path
       style="fill:#3f3f3f;fill-opacity:1;fill-rule:nonzero;stroke:none"
       d="m 490.25391,281.78125 h 7.93359 v 2.05469 h -5.43359 v 3.78125 h 5.05078 v 2.03515 h -5.05078 v 5.84375 h -2.5 z m 0,0"
       id="path5555" />
    <path
       style="fill:#3f3f3f;fill-opacity:1;fill-rule:nonzero;stroke:none"
       d="m 519.64844,289.71484 -1.07813,-3.37109 c -0.26562,-0.83984 -0.49219,-1.77344 -0.6914,-2.57031 h -0.0391 c -0.20703,0.79687 -0.42968,1.7539 -0.65234,2.57031 l -1.0625,3.37109 z m -3.92969,1.89453 -1.17969,3.88672 h -2.58203 l 4.39844,-13.71484 h 3.1875 l 4.46094,13.71484 h -2.71094 l -1.23828,-3.88672 z m 0,0"
       id="path5557" />
    <path
       style="fill:#7f7f85;fill-opacity:1;fill-rule:nonzero;stroke:none"
       d="m 464.09375,534.9375 h 5.20703 v -1.73438 h -5.20703 z m 0,0"
       id="path5559" />
    <path
       style="fill:#7f7f85;fill-opacity:1;fill-rule:nonzero;stroke:none"
       d="m 474.72656,528.51172 h -0.0391 l -2.42578,1.22265 -0.42969,-1.89843 3.24219,-1.58985 h 2.08203 v 13.26563 h -2.42969 z m 0,0"
       id="path5561" />
    <path
       style="fill:#7f7f85;fill-opacity:1;fill-rule:nonzero;stroke:none"
       d="m 494.44141,532.89844 c 0,3.24609 0.875,4.91797 2.24218,4.91797 1.4961,0 2.25,-1.79688 2.25,-4.97657 0,-3.08203 -0.71875,-4.89843 -2.23047,-4.89843 -1.32421,0 -2.26171,1.65234 -2.26171,4.95703 m 7.01953,-0.125 c 0,4.28906 -1.67188,6.96093 -4.85938,6.96093 -3.03906,0 -4.67187,-2.77734 -4.6914,-6.82031 0,-4.13672 1.7539,-6.89453 4.85546,-6.89453 3.20704,0 4.69532,2.85938 4.69532,6.75391"
       id="path5563" />
    <path
       style="fill:#7f7f85;fill-opacity:1;fill-rule:nonzero;stroke:none"
       d="m 517.41797,528.65234 v 4.60938 h 4.42578 v 1.59375 h -4.42578 v 4.65625 h -1.69531 v -4.65625 h -4.42969 v -1.59375 h 4.42969 v -4.60938 z m 0,0"
       id="path5565" />
    <path
       style="fill:#7f7f85;fill-opacity:1;fill-rule:nonzero;stroke:none"
       d="m 525.41797,528.51172 h -0.043 l -2.42578,1.22265 -0.42969,-1.89843 3.24609,-1.58985 h 2.08204 v 13.26563 h -2.42969 z m 0,0"
       id="path5567" />
    <path
       style="fill:#3f3f3f;fill-opacity:1;fill-rule:nonzero;stroke:none"
       d="m 635.70312,256.25 h -3.90234 v -2.09766 h 10.35547 V 256.25 h -3.94922 v 11.61719 h -2.50391 z m 0,0"
       id="path5569" />
    <path
       style="fill:#3f3f3f;fill-opacity:1;fill-rule:nonzero;stroke:none"
       d="m 656.12891,254.15234 h 7.9375 v 2.05469 h -5.4336 v 3.78516 h 5.04688 v 2.03906 h -5.04688 v 5.83594 h -2.5039 z m 0,0"
       id="path5571" />
    <path
       style="fill:#3f3f3f;fill-opacity:1;fill-rule:nonzero;stroke:none"
       d="m 685.52344,262.08984 -1.07813,-3.3789 c -0.26172,-0.83203 -0.49219,-1.76953 -0.6914,-2.5625 h -0.0391 c -0.20312,0.79297 -0.42968,1.75 -0.65234,2.5625 l -1.05859,3.3789 z m -3.92578,1.89063 -1.1836,3.88672 h -2.57812 l 4.39453,-13.71485 h 3.19531 l 4.45313,13.71485 h -2.70704 l -1.23828,-3.88672 z m 0,0"
       id="path5573" />
    <path
       style="fill:#7f7f85;fill-opacity:1;fill-rule:nonzero;stroke:none"
       d="m 635.70312,399.86719 h -3.90234 v -2.09375 h 10.35938 v 2.09375 h -3.95313 v 11.61718 h -2.50391 z m 0,0"
       id="path5575" />
    <path
       style="fill:#7f7f85;fill-opacity:1;fill-rule:nonzero;stroke:none"
       d="m 656.12891,397.77344 h 7.9375 v 2.05468 h -5.4336 v 3.78516 h 5.05078 v 2.03516 h -5.05078 v 5.83984 h -2.5039 z m 0,0"
       id="path5577" />
    <path
       style="fill:#7f7f85;fill-opacity:1;fill-rule:nonzero;stroke:none"
       d="m 685.52344,405.71094 -1.07813,-3.37891 c -0.26172,-0.83203 -0.48437,-1.76953 -0.6914,-2.5625 h -0.0352 c -0.20703,0.79297 -0.43359,1.74609 -0.65625,2.5625 l -1.05859,3.37891 z m -3.92578,1.89062 -1.1836,3.88672 h -2.57812 l 4.39453,-13.71484 h 3.19531 l 4.45703,13.71484 h -2.71094 l -1.23828,-3.88672 z m 0,0"
       id="path5579" />
    <path
       style="fill:#3f3f3f;fill-opacity:1;fill-rule:nonzero;stroke:none"
       d="m 277.5625,228.75391 1.62891,4.89062 c 0.1875,0.55859 0.39453,1.25391 0.52734,1.75781 h 0.0547 c 0.1289,-0.5039 0.29687,-1.19922 0.48437,-1.78125 l 1.42578,-4.86718 h 2.45703 l -2.28906,6.21875 c -1.2539,3.41015 -2.09765,4.92968 -3.16797,5.86718 -0.91406,0.78516 -1.85156,1.08594 -2.41797,1.16016 l -0.51953,-1.92578 c 0.39453,-0.0977 0.85938,-0.30469 1.32422,-0.63672 0.45313,-0.28516 0.95703,-0.82813 1.27735,-1.44922 0.0937,-0.16797 0.1289,-0.29297 0.1289,-0.41016 0,-0.0898 -0.0156,-0.22265 -0.10937,-0.44921 l -3.35547,-8.375 z m 0,0"
       id="path5581" />
    <path
       style="fill:#3f3f3f;fill-opacity:1;fill-rule:nonzero;stroke:none"
       d="m 276.09766,258.66016 c 0,-1.04688 -0.0391,-1.92579 -0.0742,-2.71094 h 2.0039 l 0.11719,1.36328 h 0.0508 c 0.41406,-0.71094 1.40625,-1.57031 2.92969,-1.57031 1.58984,0 3.23828,1.02734 3.23828,3.91406 v 5.41406 h -2.30469 v -5.15625 c 0,-1.30469 -0.48828,-2.30078 -1.74218,-2.30078 -0.91797,0 -1.55469,0.65625 -1.79688,1.35156 -0.0781,0.1875 -0.11719,0.46485 -0.11719,0.72657 v 5.3789 h -2.30468 z m 0,0"
       id="path5583" />
    <path
       style="fill:#7f7f85;fill-opacity:1;fill-rule:nonzero;stroke:none"
       d="m 248.65625,347.33984 1.62891,4.88672 c 0.1875,0.5625 0.39453,1.25391 0.52734,1.76172 h 0.0547 c 0.13281,-0.50781 0.30078,-1.19922 0.48828,-1.77734 l 1.42578,-4.8711 h 2.45312 l -2.28515,6.21875 c -1.25781,3.41016 -2.10156,4.92578 -3.16797,5.86328 -0.91797,0.78907 -1.85547,1.08985 -2.41797,1.16407 l -0.52344,-1.9336 c 0.39453,-0.0898 0.85938,-0.29687 1.33203,-0.63281 0.44532,-0.28125 0.95313,-0.82422 1.26954,-1.44531 0.0977,-0.16797 0.13671,-0.30078 0.13671,-0.41016 0,-0.0937 -0.0195,-0.22265 -0.11718,-0.44922 l -3.35547,-8.375 z m 0,0"
       id="path5669" />
    <path
       style="fill:#7f7f85;fill-opacity:1;fill-rule:nonzero;stroke:none"
       d="m 247.19531,377.24609 c 0,-1.05078 -0.0391,-1.92968 -0.0742,-2.71875 h 2.00391 l 0.11328,1.3711 h 0.0547 c 0.41015,-0.71485 1.40234,-1.57422 2.92578,-1.57422 1.58984,0 3.23828,1.02734 3.23828,3.91797 v 5.41406 h -2.30078 V 378.5 c 0,-1.3125 -0.49219,-2.30469 -1.74609,-2.30469 -0.91797,0 -1.55469,0.66016 -1.79688,1.35156 -0.0742,0.1875 -0.11719,0.46875 -0.11719,0.73047 v 5.37891 h -2.30078 z m 0,0"
       id="path5671" />
    <path
       style="fill:#3f3f3f;fill-opacity:1;fill-rule:nonzero;stroke:none"
       d="m 280.19141,508.53906 h 5.20703 v -1.73437 h -5.20703 z m 0,0"
       id="path5849" />
    <path
       style="fill:#3f3f3f;fill-opacity:1;fill-rule:nonzero;stroke:none"
       d="m 290.82812,502.10937 h -0.0391 l -2.42969,1.22657 -0.42968,-1.89844 3.24609,-1.59375 h 2.08203 v 13.26562 h -2.42969 z m 0,0"
       id="path5851" />
    <path
       style="fill:#3f3f3f;fill-opacity:1;fill-rule:nonzero;stroke:none"
       d="m 310.54297,506.5 c 0,3.23828 0.8789,4.91406 2.24609,4.91406 1.48828,0 2.24219,-1.79297 2.24219,-4.97656 0,-3.08203 -0.71484,-4.89844 -2.22266,-4.89844 -1.32812,0 -2.26562,1.65235 -2.26562,4.96094 m 7.01953,-0.125 c 0,4.28516 -1.67578,6.95703 -4.85547,6.95703 -3.04297,0 -4.67187,-2.77344 -4.69531,-6.8125 0,-4.14453 1.75781,-6.90234 4.85547,-6.90234 3.20312,0 4.69531,2.85937 4.69531,6.75781"
       id="path5853" />
    <path
       style="fill:#3f3f3f;fill-opacity:1;fill-rule:nonzero;stroke:none"
       d="m 333.51562,502.25 v 4.61719 h 4.4336 v 1.58984 h -4.4336 v 4.65234 h -1.69531 v -4.65234 h -4.42969 v -1.58984 h 4.42969 V 502.25 Z m 0,0"
       id="path5855" />
    <path
       style="fill:#3f3f3f;fill-opacity:1;fill-rule:nonzero;stroke:none"
       d="m 341.51562,502.10937 h -0.0351 l -2.42969,1.22657 -0.42969,-1.89844 3.24219,-1.59375 h 2.08203 v 13.26562 h -2.42969 z m 0,0"
       id="path5857" />
    <path
       style="fill:#7f7f85;fill-opacity:1;fill-rule:nonzero;stroke:none"
       d="m 280.19141,409.04297 h 5.20703 v -1.73438 h -5.20703 z m 0,0"
       id="path5859" />
    <path
       style="fill:#7f7f85;fill-opacity:1;fill-rule:nonzero;stroke:none"
       d="m 290.83203,402.60937 h -0.043 l -2.42969,1.22657 -0.42578,-1.89844 3.24219,-1.59375 h 2.08203 v 13.26562 H 290.832 Z m 0,0"
       id="path5861" />
    <path
       style="fill:#7f7f85;fill-opacity:1;fill-rule:nonzero;stroke:none"
       d="m 310.54297,407 c 0,3.24219 0.8789,4.91797 2.24609,4.91797 1.48828,0 2.24219,-1.79688 2.24219,-4.98047 0,-3.08203 -0.71484,-4.89844 -2.22266,-4.89844 -1.32812,0 -2.26562,1.65235 -2.26562,4.96094 m 7.01953,-0.125 c 0,4.28516 -1.67578,6.96094 -4.85547,6.96094 -3.04297,0 -4.67187,-2.77735 -4.69531,-6.81641 0,-4.14453 1.75781,-6.89844 4.85547,-6.89844 3.20703,0 4.69531,2.85547 4.69531,6.75391"
       id="path5863" />
    <path
       style="fill:#7f7f85;fill-opacity:1;fill-rule:nonzero;stroke:none"
       d="m 333.51562,402.75391 v 4.61328 h 4.4336 v 1.58984 h -4.4336 v 4.65234 h -1.69531 v -4.65234 h -4.42187 v -1.58984 h 4.42187 v -4.61328 z m 0,0"
       id="path5865" />
    <path
       style="fill:#7f7f85;fill-opacity:1;fill-rule:nonzero;stroke:none"
       d="m 341.52344,402.60937 h -0.043 l -2.42969,1.22657 -0.42578,-1.89844 3.23828,-1.59375 h 2.08203 v 13.26562 h -2.42187 z m 0,0"
       id="path5867" />
    <path
       style="fill:#7f7f85;fill-opacity:1;fill-rule:nonzero;stroke:none"
       d="m 279.89062,676.10937 h 5.20704 V 674.375 h -5.20704 z m 0,0"
       id="path5869" />
    <path
       style="fill:#7f7f85;fill-opacity:1;fill-rule:nonzero;stroke:none"
       d="m 290.53125,669.67969 h -0.043 l -2.42969,1.22265 -0.42578,-1.89843 3.23828,-1.59375 h 2.08594 v 13.26562 h -2.42578 z m 0,0"
       id="path5871" />
    <path
       style="fill:#7f7f85;fill-opacity:1;fill-rule:nonzero;stroke:none"
       d="m 310.23828,674.0625 c 0,3.24609 0.87891,4.92187 2.25,4.92187 1.48828,0 2.24219,-1.79687 2.24219,-4.98046 0,-3.08204 -0.71485,-4.89844 -2.22266,-4.89844 -1.33203,0 -2.26953,1.65234 -2.26953,4.95703 m 7.02344,-0.11719 c 0,4.28125 -1.67578,6.95703 -4.85547,6.95703 -3.04688,0 -4.67578,-2.77734 -4.69922,-6.8164 0,-4.14453 1.75781,-6.89844 4.85938,-6.89844 3.20703,0 4.69531,2.85547 4.69531,6.75781"
       id="path5873" />
    <path
       style="fill:#7f7f85;fill-opacity:1;fill-rule:nonzero;stroke:none"
       d="m 333.21484,669.82031 v 4.61328 h 4.42969 v 1.59375 h -4.42969 v 4.64844 h -1.69531 v -4.64844 h -4.42578 v -1.59375 h 4.42578 v -4.61328 z m 0,0"
       id="path5875" />
    <path
       style="fill:#7f7f85;fill-opacity:1;fill-rule:nonzero;stroke:none"
       d="m 341.21875,669.67969 h -0.043 l -2.42969,1.22265 -0.42187,-1.89843 3.23828,-1.59375 h 2.08203 v 13.26562 h -2.42578 z m 0,0"
       id="path5877" />
    <path
       style="fill:#3f3f3f;fill-opacity:1;fill-rule:nonzero;stroke:none"
       d="m 631.24609,454.12109 c 0.52735,0.31641 1.8125,0.84375 3.1211,0.84375 1.98437,0 2.76562,-1.11718 2.76562,-2.19531 0,-1.625 -1.54297,-2.32031 -3.12109,-2.32031 h -1.1875 v -1.89844 h 1.1875 c 1.17969,0 2.69922,-0.54687 2.69922,-1.89844 0,-0.94922 -0.67578,-1.73047 -2.19532,-1.73047 -1.11718,0 -2.23437,0.48829 -2.80859,0.86719 l -0.58984,-1.8789 c 0.78125,-0.52735 2.32422,-1.05469 3.94531,-1.05469 2.84766,0 4.28516,1.55859 4.28516,3.35547 0,1.42968 -0.84375,2.61328 -2.53125,3.20312 v 0.0469 c 1.66796,0.3125 2.99218,1.5625 3.01562,3.41406 0,2.32031 -1.9375,4.15625 -5.33594,4.15625 -1.67187,0 -3.10547,-0.46094 -3.83984,-0.94922 z m 0,0"
       id="path5879" />
    <path
       style="fill:#3f3f3f;fill-opacity:1;fill-rule:nonzero;stroke:none"
       d="M 630.71484,484.45703 V 482.875 l 1.625,-1.49609 c 3.23047,-3 4.75,-4.64063 4.77344,-6.45704 0,-1.22656 -0.65625,-2.30078 -2.44922,-2.30078 -1.22656,0 -2.23828,0.61328 -2.92969,1.14063 l -0.76171,-1.83594 c 0.98828,-0.80078 2.48828,-1.41406 4.21875,-1.41406 3.03515,0 4.51562,1.91797 4.51562,4.15625 0,2.40234 -1.73047,4.34765 -4.13672,6.5625 l -1.18359,1.03125 v 0.0469 h 5.61719 v 2.14844 z m 0,0"
       id="path5881" />
    <path
       style="fill:#3f3f3f;fill-opacity:1;fill-rule:nonzero;stroke:none"
       d="m 634.78906,498.39844 h -0.043 l -2.51172,1.26562 -0.4375,-1.96484 3.34766,-1.64063 h 2.15625 v 13.71485 h -2.51172 z m 0,0"
       id="path5883" />
    <path
       style="fill:#7f7f85;fill-opacity:1;fill-rule:nonzero;stroke:none"
       d="m 603.35937,597.1875 c 0.52735,0.31641 1.81641,0.84375 3.125,0.84375 1.98438,0 2.76563,-1.12109 2.76563,-2.19531 0,-1.625 -1.54297,-2.32032 -3.125,-2.32032 h -1.17969 v -1.89843 h 1.17969 c 1.18359,0 2.70312,-0.54688 2.70312,-1.89844 0,-0.94922 -0.67578,-1.73047 -2.19531,-1.73047 -1.12109,0 -2.23828,0.48828 -2.80469,0.86719 l -0.58984,-1.87891 c 0.77734,-0.52734 2.32031,-1.05469 3.94141,-1.05469 2.85156,0 4.28515,1.5586 4.28515,3.35547 0,1.42969 -0.84375,2.61328 -2.53125,3.20313 v 0.0469 c 1.66407,0.3125 2.9961,1.5586 3.01563,3.41407 0,2.32031 -1.94141,4.15625 -5.33594,4.15625 -1.66797,0 -3.10547,-0.46094 -3.84375,-0.94922 z m 0,0"
       id="path5885" />
    <path
       style="fill:#7f7f85;fill-opacity:1;fill-rule:nonzero;stroke:none"
       d="m 602.83594,627.52344 v -1.58203 l 1.62109,-1.4961 c 3.23047,-3 4.75,-4.64453 4.77344,-6.45703 0,-1.22656 -0.65625,-2.30078 -2.44922,-2.30078 -1.22266,0 -2.23828,0.61328 -2.93359,1.14062 l -0.76172,-1.83593 c 0.99218,-0.80078 2.49218,-1.41407 4.21875,-1.41407 3.04297,0 4.51953,1.91797 4.51953,4.15625 0,2.40235 -1.73047,4.34766 -4.13672,6.5625 l -1.18359,1.03125 v 0.0469 h 5.61328 v 2.14844 z m 0,0"
       id="path5887" />
    <path
       style="fill:#7f7f85;fill-opacity:1;fill-rule:nonzero;stroke:none"
       d="m 606.91016,641.46094 h -0.0469 l -2.50781,1.26953 -0.44531,-1.96485 3.35546,-1.64062 h 2.15235 v 13.71484 h -2.50781 z m 0,0"
       id="path5889" />
    <g
       clip-path="url(#clip1)"
       clip-rule="nonzero"
       id="g5893">
      <path
         style="fill:#7f7f85;fill-opacity:1;fill-rule:nonzero;stroke:none"
         d="m 623.82031,681.18359 v -1.53125 l 1.57031,-1.44531 c 3.125,-2.89844 4.59375,-4.49219 4.61719,-6.25 0,-1.17969 -0.63281,-2.22656 -2.37109,-2.22656 -1.1836,0 -2.16406,0.59765 -2.83594,1.10547 l -0.73437,-1.77735 c 0.96093,-0.77343 2.40625,-1.36718 4.08203,-1.36718 2.9375,0 4.36718,1.85937 4.36718,4.02343 0,2.32422 -1.67187,4.20703 -4,6.34766 l -1.14453,1 v 0.0391 h 5.4336 v 2.08203 z m 0,0"
         id="path5891" />
    </g>
    <g
       clip-path="url(#clip2)"
       clip-rule="nonzero"
       id="g5897">
      <path
         style="fill:#7f7f85;fill-opacity:1;fill-rule:nonzero;stroke:none"
         d="m 643.20703,670 h -5.10547 l -0.38672,2.65234 c 0.28516,-0.0391 0.55469,-0.0586 0.9375,-0.0586 1.16797,0 2.34766,0.26562 3.22657,0.85547 0.99609,0.63281 1.73437,1.7539 1.73437,3.36328 0,2.53125 -2.10156,4.59766 -5.34375,4.59766 -1.55469,0 -2.83984,-0.39063 -3.53516,-0.77735 l 0.51563,-1.89453 c 0.57031,0.30469 1.71094,0.6875 2.91797,0.6875 1.46875,0 2.875,-0.83594 2.875,-2.40625 0,-1.52734 -1.1211,-2.53125 -3.75391,-2.53125 -0.75781,0 -1.30469,0.0625 -1.8164,0.125 l 0.85546,-6.69531 h 6.87891 z m 0,0"
         id="path5895" />
    </g>
    <g
       clip-path="url(#clip3)"
       clip-rule="nonzero"
       id="g5901">
      <path
         style="fill:#7f7f85;fill-opacity:1;fill-rule:nonzero;stroke:none"
         d="m 658.36719,670 h -5.10547 l -0.38672,2.65234 c 0.28906,-0.0391 0.55469,-0.0586 0.94531,-0.0586 1.16016,0 2.34375,0.26562 3.21875,0.85547 0.9961,0.63281 1.73438,1.7539 1.73438,3.36328 0,2.53125 -2.10157,4.59766 -5.34375,4.59766 -1.55469,0 -2.83985,-0.39063 -3.53516,-0.77735 l 0.51563,-1.89453 c 0.57031,0.30469 1.71484,0.6875 2.91796,0.6875 1.46875,0 2.875,-0.83594 2.875,-2.40625 0,-1.52734 -1.12109,-2.53125 -3.7539,-2.53125 -0.75781,0 -1.30469,0.0625 -1.81641,0.125 l 0.85547,-6.69531 h 6.87891 z m 0,0"
         id="path5899" />
    </g>
    <g
       clip-path="url(#clip4)"
       clip-rule="nonzero"
       id="g5905">
      <path
         style="fill:#7f7f85;fill-opacity:1;fill-rule:nonzero;stroke:none"
         d="m 663.20312,674.57031 c 0,3.2461 0.87891,4.92188 2.2461,4.92188 1.48828,0 2.24219,-1.80078 2.24219,-4.98438 0,-3.08203 -0.71485,-4.89453 -2.22266,-4.89453 -1.32813,0 -2.26563,1.65234 -2.26563,4.95703 m 7.01954,-0.125 c 0,4.28906 -1.67579,6.96485 -4.85547,6.96485 -3.04297,0 -4.67188,-2.77344 -4.69532,-6.82032 0,-4.14453 1.75,-6.89843 4.85938,-6.89843 3.19922,0 4.69141,2.85937 4.69141,6.7539"
         id="path5903" />
    </g>
    <g
       clip-path="url(#clip5)"
       clip-rule="nonzero"
       id="g5909">
      <path
         style="fill:#7f7f85;fill-opacity:1;fill-rule:nonzero;stroke:none"
         d="m 685.13672,667.92187 v 1.60938 l -5.61328,11.65234 h -2.63282 l 5.59375,-11.14453 V 670 h -6.26562 v -2.07813 z m 0,0"
         id="path5907" />
    </g>
    <g
       clip-path="url(#clip6)"
       clip-rule="nonzero"
       id="g5913">
      <path
         style="fill:#7f7f85;fill-opacity:1;fill-rule:nonzero;stroke:none"
         d="m 695.39844,670 h -5.10157 l -0.38671,2.65234 c 0.28125,-0.0391 0.55078,-0.0586 0.9375,-0.0586 1.16406,0 2.35156,0.26562 3.23046,0.85547 0.9961,0.63281 1.72657,1.7539 1.72657,3.36328 0,2.53125 -2.10157,4.59766 -5.34375,4.59766 -1.55469,0 -2.83203,-0.39063 -3.53125,-0.77735 l 0.51172,-1.89453 c 0.57031,0.30469 1.71484,0.6875 2.91796,0.6875 1.46875,0 2.87891,-0.83594 2.87891,-2.40625 0,-1.52734 -1.12109,-2.53125 -3.75391,-2.53125 -0.76171,0 -1.30859,0.0625 -1.8164,0.125 l 0.85547,-6.69531 h 6.875 z m 0,0"
         id="path5911" />
    </g>
    <path
       style="fill:#7f7f85;fill-opacity:1;fill-rule:nonzero;stroke:none"
       d="m 440.19141,227.11719 1.6289,4.89062 c 0.1875,0.5625 0.39453,1.25391 0.52735,1.76172 h 0.0547 c 0.12891,-0.50781 0.29688,-1.19922 0.48438,-1.78125 l 1.42578,-4.87109 h 2.45703 l -2.28906,6.22265 c -1.25391,3.41016 -2.09375,4.92578 -3.16797,5.86328 -0.91406,0.78516 -1.85156,1.08985 -2.41797,1.16016 l -0.51953,-1.92969 c 0.39453,-0.0898 0.85937,-0.29687 1.32812,-0.63672 0.44922,-0.28125 0.95313,-0.82421 1.27735,-1.4414 0.0898,-0.16797 0.1289,-0.30078 0.1289,-0.41016 0,-0.0977 -0.0195,-0.22656 -0.11328,-0.44922 l -3.35547,-8.3789 z m 0,0"
       id="path5915" />
    <path
       style="fill:#7f7f85;fill-opacity:1;fill-rule:nonzero;stroke:none"
       d="m 438.72656,257.02734 c 0,-1.05078 -0.0391,-1.92968 -0.0742,-2.71875 h 2.00391 l 0.11719,1.36719 h 0.0547 c 0.41016,-0.71484 1.40625,-1.57422 2.92579,-1.57422 1.58984,0 3.23828,1.03125 3.23828,3.91797 v 5.41406 h -2.30469 v -5.15234 c 0,-1.3125 -0.48438,-2.30469 -1.73828,-2.30469 -0.92188,0 -1.5586,0.65625 -1.80078,1.34766 -0.0781,0.1875 -0.11719,0.47265 -0.11719,0.73047 v 5.3789 h -2.30469 z m 0,0"
       id="path5917" />
    <path
       style="fill:#7f7f85;fill-opacity:1;fill-rule:nonzero;stroke:none"
       d="m 603.27734,327.75781 c 0.52735,0.31641 1.81641,0.83985 3.125,0.83985 1.98047,0 2.76172,-1.11329 2.76172,-2.19141 0,-1.625 -1.53906,-2.32031 -3.12109,-2.32031 h -1.1836 v -1.89844 h 1.1836 c 1.18359,0 2.69922,-0.55078 2.69922,-1.90234 0,-0.94532 -0.67578,-1.73047 -2.19532,-1.73047 -1.11718,0 -2.23437,0.48828 -2.80468,0.86718 l -0.59375,-1.875 c 0.78515,-0.52734 2.32422,-1.05859 3.94922,-1.05859 2.84765,0 4.28125,1.5625 4.28125,3.35547 0,1.4375 -0.84375,2.61719 -2.53125,3.20703 v 0.043 c 1.66796,0.31641 2.99609,1.55859 3.01953,3.41797 0,2.32031 -1.94141,4.15625 -5.33594,4.15625 -1.67188,0 -3.10547,-0.46094 -3.84375,-0.94531 z m 0,0"
       id="path5919" />
    <path
       style="fill:#7f7f85;fill-opacity:1;fill-rule:nonzero;stroke:none"
       d="m 602.74609,358.08984 v -1.57812 l 1.625,-1.5 c 3.23438,-2.9961 4.75,-4.64453 4.77344,-6.45313 0,-1.23047 -0.65625,-2.30468 -2.44922,-2.30468 -1.22265,0 -2.23828,0.61328 -2.92969,1.14062 l -0.76171,-1.83594 c 0.98828,-0.80078 2.49218,-1.41406 4.21875,-1.41406 3.03515,0 4.51562,1.92188 4.51562,4.15625 0,2.40625 -1.73047,4.34766 -4.13281,6.5625 l -1.1875,1.03516 v 0.043 h 5.61719 v 2.14843 z m 0,0"
       id="path5921" />
    <path
       style="fill:#7f7f85;fill-opacity:1;fill-rule:nonzero;stroke:none"
       d="m 606.82031,372.03516 h -0.0391 l -2.51563,1.26171 -0.4375,-1.96093 3.35157,-1.64453 h 2.15234 v 13.71484 h -2.51172 z m 0,0"
       id="path5923" />
    <text
       xml:space="preserve"
       style="font-size:22px;line-height:125%;font-family:Sans;letter-spacing:0px;word-spacing:0px;fill:none;stroke:#000000;stroke-width:0.75px;stroke-linecap:butt;stroke-linejoin:miter;stroke-opacity:1"
       x="101.28159"
       y="201.98221"
       id="text6419"><tspan
         id="tspan6417"
         style="font-style:normal;font-variant:normal;font-weight:bold;font-stretch:normal;font-size:22px;font-family:Sans;-inkscape-font-specification:'Sans Bold';fill:#000000;stroke:none;stroke-width:0.75px"
         x="101.28159"
         y="201.98221">Бинарный</tspan></text>
    <text
       xml:space="preserve"
       style="font-size:22px;line-height:125%;font-family:Sans;letter-spacing:0px;word-spacing:0px;fill:none;stroke:#000000;stroke-width:0.75px;stroke-linecap:butt;stroke-linejoin:miter;stroke-opacity:1"
       x="52.375664"
       y="703.61169"
       id="text6423"><tspan
         id="tspan6421"
         style="font-style:normal;font-variant:normal;font-weight:bold;font-stretch:normal;font-size:22px;font-family:Sans;-inkscape-font-specification:'Sans Bold';fill:#000000;stroke:none;stroke-width:0.75px"
         x="52.375664"
         y="703.61169">Расходящийся</tspan></text>
    <text
       xml:space="preserve"
       style="font-size:22px;line-height:125%;font-family:Sans;letter-spacing:0px;word-spacing:0px;fill:none;stroke:#000000;stroke-width:0.75px;stroke-linecap:butt;stroke-linejoin:miter;stroke-opacity:1"
       x="768.21503"
       y="703.61169"
       id="text6427"><tspan
         id="tspan6425"
         style="font-style:normal;font-variant:normal;font-weight:bold;font-stretch:normal;font-size:22px;font-family:Sans;-inkscape-font-specification:'Sans Bold';fill:#000000;stroke:none;stroke-width:0.75px"
         x="768.21503"
         y="703.61169">Последовательный</tspan></text>
    <text
       xml:space="preserve"
       style="font-size:22px;line-height:125%;font-family:Sans;letter-spacing:0px;word-spacing:0px;fill:none;stroke:#000000;stroke-width:0.75px;stroke-linecap:butt;stroke-linejoin:miter;stroke-opacity:1"
       x="762.22455"
       y="201.98221"
       id="text6431"><tspan
         id="tspan6429"
         style="font-style:normal;font-variant:normal;font-weight:bold;font-stretch:normal;font-size:22px;font-family:Sans;-inkscape-font-specification:'Sans Bold';fill:#000000;stroke:none;stroke-width:0.75px"
         x="762.22455"
         y="201.98221">Категориальный</tspan></text>
    <text
       xml:space="preserve"
       style="font-size:14px;line-height:125%;font-family:Sans;letter-spacing:0px;word-spacing:0px;fill:none;stroke:#000000;stroke-width:0.75px;stroke-linecap:butt;stroke-linejoin:miter;stroke-opacity:1"
       x="427.06686"
       y="205.44266"
       id="text6435"><tspan
         id="tspan6433"
         style="font-style:italic;font-variant:normal;font-weight:bold;font-stretch:normal;font-size:14px;font-family:Sans;-inkscape-font-specification:'Sans Bold Italic';fill:#000000;stroke:none;stroke-width:0.75px"
         x="427.06686"
         y="205.44266">Категориальный</tspan></text>
    <text
       xml:space="preserve"
       style="font-size:14px;line-height:125%;font-family:Sans;letter-spacing:0px;word-spacing:0px;fill:none;stroke:#000000;stroke-width:0.75px;stroke-linecap:butt;stroke-linejoin:miter;stroke-opacity:1"
       x="605.22522"
       y="205.15015"
       id="text6435-3"><tspan
         id="tspan6433-5"
         style="font-style:italic;font-variant:normal;font-weight:bold;font-stretch:normal;font-size:14px;font-family:Sans;-inkscape-font-specification:'Sans Bold Italic';fill:#000000;stroke:none;stroke-width:0.75px"
         x="605.22522"
         y="205.15015">Категориальный</tspan></text>
    <text
       xml:space="preserve"
       style="font-size:14px;line-height:125%;font-family:Sans;letter-spacing:0px;word-spacing:0px;fill:none;stroke:#000000;stroke-width:0.75px;stroke-linecap:butt;stroke-linejoin:miter;stroke-opacity:1"
       x="-285.07611"
       y="556.51141"
       id="text6439"
       transform="rotate(-90)"><tspan
         id="tspan6437"
         style="font-style:italic;font-variant:normal;font-weight:bold;font-stretch:normal;font-size:14px;font-family:Sans;-inkscape-font-specification:'Sans Bold Italic';fill:#000000;stroke:none;stroke-width:0.75px"
         x="-285.07611"
         y="556.51141">Бинарный</tspan></text>
    <text
       xml:space="preserve"
       style="font-size:14px;line-height:125%;font-family:Sans;letter-spacing:0px;word-spacing:0px;fill:none;stroke:#000000;stroke-width:0.75px;stroke-linecap:butt;stroke-linejoin:miter;stroke-opacity:1"
       x="-398.58826"
       y="375.96622"
       id="text6439-7"
       transform="rotate(-90)"><tspan
         id="tspan6437-5"
         style="font-style:italic;font-variant:normal;font-weight:bold;font-stretch:normal;font-size:14px;font-family:Sans;-inkscape-font-specification:'Sans Bold Italic';fill:#000000;stroke:none;stroke-width:0.75px"
         x="-398.58826"
         y="375.96622">Бинарный</tspan></text>
    <text
       xml:space="preserve"
       style="font-size:14px;line-height:125%;font-family:Sans;letter-spacing:0px;word-spacing:0px;fill:none;stroke:#000000;stroke-width:0.75px;stroke-linecap:butt;stroke-linejoin:miter;stroke-opacity:1"
       x="261.4306"
       y="325.39523"
       id="text6476"><tspan
         id="tspan6474"
         style="font-style:italic;font-variant:normal;font-weight:bold;font-stretch:normal;font-size:14px;font-family:Sans;-inkscape-font-specification:'Sans Bold Italic';fill:#000000;stroke:none;stroke-width:0.75px"
         x="261.4306"
         y="325.39523">Расходящийся</tspan></text>
    <text
       xml:space="preserve"
       style="font-size:14px;line-height:125%;font-family:Sans;letter-spacing:0px;word-spacing:0px;fill:none;stroke:#000000;stroke-width:0.75px;stroke-linecap:butt;stroke-linejoin:miter;stroke-opacity:1"
       x="261.4306"
       y="566.89526"
       id="text6480"><tspan
         id="tspan6478"
         style="font-style:italic;font-variant:normal;font-weight:bold;font-stretch:normal;font-size:14px;font-family:Sans;-inkscape-font-specification:'Sans Bold Italic';fill:#000000;stroke:none;stroke-width:0.75px"
         x="261.4306"
         y="566.89526">Расходящийся</tspan></text>
    <text
       xml:space="preserve"
       style="font-size:14px;line-height:125%;font-family:Sans;letter-spacing:0px;word-spacing:0px;fill:none;stroke:#000000;stroke-width:0.75px;stroke-linecap:butt;stroke-linejoin:miter;stroke-opacity:1"
       x="-667.11621"
       y="378.9429"
       id="text6484"
       transform="rotate(-90)"><tspan
         id="tspan6482"
         style="font-style:italic;font-variant:normal;font-weight:bold;font-stretch:normal;font-size:14px;font-family:Sans;-inkscape-font-specification:'Sans Bold Italic';fill:#000000;stroke:none;stroke-width:0.75px"
         x="-667.11621"
         y="378.9429">Расходящийся</tspan></text>
    <text
       xml:space="preserve"
       style="font-size:14px;line-height:125%;font-family:Sans;letter-spacing:0px;word-spacing:0px;fill:none;stroke:#000000;stroke-width:0.75px;stroke-linecap:butt;stroke-linejoin:miter;stroke-opacity:1"
       x="445.82367"
       y="423.41473"
       id="text6488"><tspan
         id="tspan6486"
         style="font-style:italic;font-variant:normal;font-weight:bold;font-stretch:normal;font-size:14px;font-family:Sans;-inkscape-font-specification:'Sans Bold Italic';fill:#000000;stroke:none;stroke-width:0.75px"
         x="445.82367"
         y="423.41473">Расходящийся</tspan></text>
    <text
       xml:space="preserve"
       style="font-size:14px;line-height:125%;font-family:Sans;letter-spacing:0px;word-spacing:0px;fill:none;stroke:#000000;stroke-width:0.75px;stroke-linecap:butt;stroke-linejoin:miter;stroke-opacity:1"
       x="-546.11548"
       y="568.73828"
       id="text6492"
       transform="rotate(-90)"><tspan
         id="tspan6490"
         style="font-style:italic;font-variant:normal;font-weight:bold;font-stretch:normal;font-size:14px;font-family:Sans;-inkscape-font-specification:'Sans Bold Italic';fill:#000000;stroke:none;stroke-width:0.75px"
         x="-546.11548"
         y="568.73828">Последовательный</tspan></text>
    <text
       xml:space="preserve"
       style="font-size:14px;line-height:125%;font-family:Sans;letter-spacing:0px;word-spacing:0px;fill:none;stroke:#000000;stroke-width:0.75px;stroke-linecap:butt;stroke-linejoin:miter;stroke-opacity:1"
       x="-714.71515"
       y="736.57068"
       id="text6496"
       transform="rotate(-90)"><tspan
         id="tspan6494"
         style="font-style:italic;font-variant:normal;font-weight:bold;font-stretch:normal;font-size:14px;font-family:Sans;-inkscape-font-specification:'Sans Bold Italic';fill:#000000;stroke:none;stroke-width:0.75px"
         x="-714.71515"
         y="736.57068">Последовательный</tspan></text>
    <text
       xml:space="preserve"
       style="font-size:14px;line-height:125%;font-family:Sans;letter-spacing:0px;word-spacing:0px;fill:none;stroke:#000000;stroke-width:0.75px;stroke-linecap:butt;stroke-linejoin:miter;stroke-opacity:1"
       x="-419.66809"
       y="729.15399"
       id="text6500"
       transform="rotate(-90)"><tspan
         id="tspan6498"
         style="font-style:italic;font-variant:normal;font-weight:bold;font-stretch:normal;font-size:14px;font-family:Sans;-inkscape-font-specification:'Sans Bold Italic';fill:#000000;stroke:none;stroke-width:0.75px"
         x="-419.66809"
         y="729.15399">Последовательный</tspan></text>
    <text
       xml:space="preserve"
       style="font-size:14px;line-height:125%;font-family:Sans;letter-spacing:0px;word-spacing:0px;fill:none;stroke:#000000;stroke-width:0.75px;stroke-linecap:butt;stroke-linejoin:miter;stroke-opacity:1"
       x="583.06207"
       y="568.25067"
       id="text6537"><tspan
         id="tspan6535"
         style="font-style:italic;font-variant:normal;font-weight:bold;font-stretch:normal;font-size:14px;font-family:Sans;-inkscape-font-specification:'Sans Bold Italic';fill:#000000;stroke:none;stroke-width:0.75px"
         x="583.06207"
         y="568.25067">Последовательный</tspan></text>
  </g>
</svg>
